HIERARCHY
ROOT Hips
{
	OFFSET 0.000000 88.474243 0.000000
	CHANNELS 6 Xposition Yposition Zposition Zrotation Yrotation Xrotation 
	JOINT Hips_Spine
	{
		OFFSET 0.000000 0.000000 0.000000
		CHANNELS 3 Zrotation Yrotation Xrotation
		JOINT Spine
		{
			OFFSET 0.005100 8.711998 -0.691000
			CHANNELS 3 Zrotation Yrotation Xrotation
			JOINT Spine1
			{
				OFFSET -0.009200 8.660301 -1.275000
				CHANNELS 3 Zrotation Yrotation Xrotation
				JOINT Spine2
				{
					OFFSET 0.006300 9.852501 -1.857000
					CHANNELS 3 Zrotation Yrotation Xrotation
					JOINT Spine2_Neck
					{
						OFFSET 0.000000 0.000000 0.000000
						CHANNELS 3 Zrotation Yrotation Xrotation
						JOINT Neck
						{
							OFFSET 0.016300 11.420799 -0.263300
							CHANNELS 3 Zrotation Yrotation Xrotation
							End Site #name: Head
							{
								OFFSET -0.019200 9.262405 2.362500
							}
						}
					}
					JOINT Spine2_LeftShoulder
					{
						OFFSET 0.000000 0.000000 0.000000
						CHANNELS 3 Zrotation Yrotation Xrotation
						JOINT LeftShoulder
						{
							OFFSET 5.616900 6.732201 -0.345700
							CHANNELS 3 Zrotation Yrotation Xrotation
							JOINT LeftArm
							{
								OFFSET 10.664888 -0.183372 -2.440700
								CHANNELS 3 Zrotation Yrotation Xrotation
								JOINT LeftForeArm
								{
									OFFSET 27.459126 0.000000 0.000000
									CHANNELS 3 Zrotation Yrotation Xrotation
									End Site #name: LeftHand
									{
										OFFSET 21.306858 0.000000 0.000000
									}
								}
							}
						}
					}
					JOINT Spine2_RightShoulder
					{
						OFFSET 0.000000 0.000000 0.000000
						CHANNELS 3 Zrotation Yrotation Xrotation
						JOINT RightShoulder
						{
							OFFSET -5.580300 6.737503 -0.344400
							CHANNELS 3 Zrotation Yrotation Xrotation
							JOINT RightArm
							{
								OFFSET -10.679335 -0.188484 -2.383900
								CHANNELS 3 Zrotation Yrotation Xrotation
								JOINT RightForeArm
								{
									OFFSET -27.503529 0.000000 0.000000
									CHANNELS 3 Zrotation Yrotation Xrotation
									End Site #name: RightHand
									{
										OFFSET -21.306808 0.000000 0.000000
									}
								}
							}
						}
					}
				}
			}
		}
	}
	JOINT Hips_LeftUpLeg
	{
		OFFSET 0.000000 0.000000 0.000000
		CHANNELS 3 Zrotation Yrotation Xrotation
		JOINT LeftUpLeg
		{
			OFFSET 6.857700 -6.739601 0.312100
			CHANNELS 3 Zrotation Yrotation Xrotation
			JOINT LeftLeg
			{
				OFFSET -0.367590 -34.731552 -4.572400
				CHANNELS 3 Zrotation Yrotation Xrotation
				End Site #name: LeftFoot
				{
					OFFSET 0.367590 -34.656704 -6.067400
				}
			}
		}
	}
	JOINT Hips_RightUpLeg
	{
		OFFSET 0.000000 0.000000 0.000000
		CHANNELS 3 Zrotation Yrotation Xrotation
		JOINT RightUpLeg
		{
			OFFSET -6.876100 -6.733299 0.301000
			CHANNELS 3 Zrotation Yrotation Xrotation
			JOINT RightLeg
			{
				OFFSET 0.347353 -34.795158 -4.515900
				CHANNELS 3 Zrotation Yrotation Xrotation
				End Site #name: RightFoot
				{
					OFFSET -0.347353 -34.589367 -6.070300
				}
			}
		}
	}
}
MOTION
Frames: 13
Frame Time: 0.041667
2.980230 0.791334 -5.003193 175.155308 -8.159781 -178.291219 0.000000 -0.000000 0.000000 -6.088576 -0.368159 4.215294 0.447977 -1.788727 -0.234309 0.000000 0.000000 0.000000 0.990730 -1.708296 0.427705 2.190204 -31.021102 -4.002117 -0.006666 -1.467492 -1.122525 1.560867 -6.792923 0.778006 -85.392904 -22.670358 12.873872 2.907197 -18.846828 -0.670850 0.364432 -2.315074 -0.465458 15.502242 14.647390 4.712966 55.445114 8.852108 9.277155 -1.333326 47.176648 2.821639 0.000000 0.000000 0.000000 -3.452331 15.465755 -5.471102 0.186713 -37.996688 -15.215608 0.000000 0.000000 -0.000000 -4.344490 -54.050051 -10.443495 -11.642851 -5.689554 21.490238 
3.042910 0.856393 -5.137230 175.083200 -7.078101 -178.291660 0.000000 -0.000000 0.000000 -6.406968 -0.279319 4.368589 0.444705 -1.709188 -0.322238 0.000000 0.000000 0.000000 0.972742 -1.660959 0.333159 1.964260 -29.873350 -4.567523 -0.008720 -1.403964 -1.145665 1.610812 -7.272667 0.925258 -85.292468 -22.763515 13.040516 2.879622 -19.879601 -0.757135 0.378967 -2.238092 -0.528847 15.191752 14.639071 4.760677 55.428472 8.734373 9.538061 -1.589524 46.777733 2.538887 0.000000 0.000000 0.000000 -3.494158 15.128909 -6.017929 -0.015135 -37.829159 -14.586863 0.000000 0.000000 -0.000000 -4.128802 -53.040199 -10.454196 -11.149359 -4.855465 20.974775 
3.107918 0.922294 -5.266351 174.980858 -6.115451 -178.282424 0.000000 -0.000000 0.000000 -6.729514 -0.160497 4.526277 0.433084 -1.609305 -0.420245 0.000000 0.000000 0.000000 0.949765 -1.599923 0.231515 1.770510 -28.644159 -5.269578 -0.009831 -1.322129 -1.166748 1.681332 -7.657357 1.016058 -85.099168 -22.870393 13.183471 2.891954 -21.201644 -0.845674 0.394204 -2.142067 -0.592295 14.879643 14.624510 4.808777 55.428150 8.663708 9.785691 -1.826529 46.463494 2.308639 0.000000 0.000000 -0.000000 -3.540207 14.806587 -6.525817 -0.215620 -37.690392 -13.974590 0.000000 0.000000 -0.000000 -3.979267 -52.201437 -10.363528 -10.724850 -3.988267 20.421755 
3.176636 0.986550 -5.391963 174.798082 -5.519905 -178.235303 -0.000000 -0.000000 0.000000 -7.034563 -0.040124 4.705581 0.408063 -1.495657 -0.522551 0.000000 0.000000 0.000000 0.921756 -1.528085 0.129099 1.582747 -27.369881 -6.138195 -0.010885 -1.226465 -1.189144 1.769830 -7.921963 1.042240 -84.817755 -23.006006 13.300198 2.938742 -22.772225 -0.936600 0.405389 -2.033735 -0.653282 14.555645 14.659112 4.859863 55.432717 8.627588 10.011402 -2.063424 46.233543 2.077043 0.000000 0.000000 -0.000000 -3.601940 14.476764 -7.031576 -0.434392 -37.563152 -13.342291 0.000000 0.000000 -0.000000 -3.895136 -51.662709 -10.177610 -10.194508 -2.901249 19.911838 
3.249873 1.047171 -5.516025 174.581930 -5.175022 -178.175612 -0.000000 -0.000000 0.000000 -7.346219 0.075110 4.924472 0.368180 -1.390255 -0.602571 0.000000 0.000000 0.000000 0.893450 -1.462564 0.020802 1.592544 -25.947157 -7.296966 -0.013361 -1.121687 -1.221586 1.850756 -8.147082 1.065614 -84.492955 -23.145346 13.396641 3.012922 -24.544843 -1.039280 0.406000 -1.920608 -0.710827 14.206754 14.772562 4.921887 55.439179 8.643412 10.157872 -2.289412 46.148998 1.851598 0.000000 0.000000 -0.000000 -3.676847 14.122903 -7.522009 -0.675593 -37.448636 -12.685196 0.000000 -0.000000 -0.000000 -3.894743 -51.606311 -9.898408 -9.668498 -1.772268 19.435098 
3.329519 1.103416 -5.638612 174.332494 -5.114865 -178.103396 -0.000000 -0.000000 0.000000 -7.687695 0.188730 5.212281 0.311596 -1.291894 -0.650597 0.000000 0.000000 0.000000 0.867768 -1.403092 -0.076556 1.547554 -24.449549 -8.443880 -0.023488 -1.018219 -1.233078 1.912262 -8.337609 1.090423 -84.159524 -23.287434 13.520827 3.119240 -26.446486 -1.142157 0.401759 -1.817850 -0.766444 13.836267 14.964660 5.007188 55.437408 8.703462 10.189743 -2.461365 46.297262 1.677088 0.000000 0.000000 -0.000000 -3.790051 13.708887 -8.008115 -0.947467 -37.366776 -11.989222 0.000000 -0.000000 -0.000000 -4.028553 -51.998357 -9.521177 -9.105473 -0.762793 18.942516 
3.418000 1.155488 -5.759879 174.048449 -5.265994 -178.006275 -0.000000 -0.000000 0.000000 -8.044632 0.312020 5.544836 0.251854 -1.206597 -0.671863 0.000000 0.000000 0.000000 0.848654 -1.353736 -0.134304 1.441527 -22.927438 -9.527309 -0.037186 -0.925591 -1.224012 1.973710 -8.531494 1.118031 -83.784661 -23.429739 13.619312 3.275300 -29.166666 -1.276284 0.398071 -1.723683 -0.805680 13.494218 15.231513 5.113679 55.426478 8.777374 10.144347 -2.521646 46.627150 1.632433 0.000000 0.000000 -0.000000 -3.915376 13.317497 -8.473905 -1.257130 -37.356270 -11.248670 0.000000 -0.000000 -0.000000 -4.264940 -52.765979 -9.136835 -8.502581 0.165498 18.624895 
3.515860 1.200982 -5.878427 173.751550 -5.681621 -177.892923 -0.000000 -0.000000 0.000000 -8.409556 0.399140 5.846242 0.196121 -1.159781 -0.642715 0.000000 0.000000 0.000000 0.837524 -1.326936 -0.143937 1.398226 -21.161964 -10.888789 -0.058058 -0.869643 -1.189227 2.032529 -8.730782 1.146360 -83.423860 -23.555664 13.652412 3.502964 -32.908742 -1.451304 0.402468 -1.644034 -0.812187 13.172495 15.585992 5.224673 55.410901 8.868836 10.006432 -2.552826 47.100792 1.599498 0.000000 0.000000 -0.000000 -4.061305 12.946145 -8.965117 -1.650824 -37.414634 -10.397894 0.000000 -0.000000 -0.000000 -4.576884 -53.858202 -8.715671 -7.670511 1.179151 18.374788 
3.622262 1.243583 -5.996361 173.448489 -6.240937 -177.779442 -0.000000 -0.000000 0.000000 -8.785154 0.442656 6.097122 0.141178 -1.139060 -0.567365 0.000000 0.000000 0.000000 0.826850 -1.311967 -0.127076 1.308857 -19.289517 -12.201535 -0.081557 -0.850910 -1.122953 2.091193 -8.943608 1.178670 -83.094239 -23.692052 13.657700 3.796407 -36.616022 -1.652037 0.415314 -1.579709 -0.796993 12.871270 16.065505 5.298795 55.391943 8.987855 9.808851 -2.570956 47.751051 1.567812 0.000000 0.000000 -0.000000 -4.241052 12.638548 -9.463930 -2.091342 -37.556701 -9.447740 0.000000 -0.000000 -0.000000 -4.947632 -55.222049 -8.244869 -6.751735 2.285546 18.259467 
3.734858 1.284987 -6.114626 173.207847 -6.893138 -177.655801 -0.000000 -0.000000 0.000000 -9.215621 0.388354 6.353714 0.072967 -1.129796 -0.476209 0.000000 0.000000 0.000000 0.807721 -1.320078 -0.103960 1.197605 -17.362271 -13.412379 -0.108944 -0.842322 -1.050795 2.162114 -9.160038 1.209903 -82.775531 -23.846073 13.646578 4.137582 -40.087872 -1.889490 0.414095 -1.535452 -0.789006 12.584954 16.656364 5.338667 55.386223 9.145553 9.603809 -2.585458 48.536958 1.533408 0.000000 0.000000 -0.000000 -4.425913 12.387491 -9.929684 -2.601212 -37.778111 -8.378938 0.000000 -0.000000 -0.000000 -5.270272 -56.496799 -7.803402 -5.682613 3.487414 18.232367 
3.854504 1.329310 -6.232726 172.997670 -7.309206 -177.552497 -0.000000 -0.000000 0.000000 -9.674459 0.317514 6.620447 -0.013552 -1.130496 -0.402874 0.000000 0.000000 0.000000 0.766330 -1.338278 -0.106746 1.159181 -15.475482 -14.480212 -0.155625 -0.836982 -0.995888 2.240778 -9.377900 1.240967 -82.448809 -24.000538 13.602009 4.528006 -43.225568 -2.131097 0.380090 -1.507323 -0.802406 12.316457 17.345970 5.351982 55.400904 9.341540 9.515768 -2.618307 49.451940 1.481269 0.000000 0.000000 -0.000000 -4.600330 12.201850 -10.339685 -3.213814 -38.068625 -7.164720 0.000000 -0.000000 -0.000000 -5.486180 -57.517204 -7.456725 -5.695542 4.062791 18.298681 
3.985047 1.378216 -6.349731 172.815787 -7.351302 -177.479099 -0.000000 -0.000000 0.000000 -10.056757 0.331116 6.805560 -0.131253 -1.146220 -0.331269 0.000000 0.000000 0.000000 0.705872 -1.356189 -0.122335 1.125205 -13.703149 -15.459663 -0.220906 -0.841024 -0.960738 2.315409 -9.573807 1.267523 -82.121576 -24.142287 13.544455 4.959687 -46.036243 -2.385149 0.311208 -1.486156 -0.847826 12.082127 18.077157 5.314046 55.444312 9.522402 9.534267 -2.698887 50.484134 1.389802 0.000000 0.000000 -0.000000 -4.759241 12.090817 -10.646261 -3.868209 -38.499925 -5.968347 0.000000 -0.000000 -0.000000 -5.624642 -58.186581 -7.213592 -5.965746 4.369064 18.287299 
4.130664 1.433844 -6.466163 172.622756 -7.114012 -177.440691 -0.000000 -0.000000 0.000000 -10.311296 0.319339 6.882033 -0.271353 -1.176342 -0.256596 0.000000 0.000000 0.000000 0.600157 -1.377364 -0.143922 1.067648 -11.845006 -16.394475 -0.298989 -0.850033 -0.951060 2.374230 -9.732894 1.287471 -81.772024 -24.302259 13.461835 5.389414 -48.438674 -2.625638 0.220391 -1.478187 -0.903809 11.910984 18.761894 5.210556 55.506616 9.651084 9.637276 -2.853514 51.848355 1.234723 0.000000 0.000000 -0.000000 -4.893299 12.042852 -10.836243 -4.536141 -39.082329 -4.907478 0.000000 -0.000000 -0.000000 -5.637551 -58.457023 -7.161293 -6.218308 4.604534 18.237924 
